<?xml version="1.0" encoding="utf-8"?>
<!-- Generator: Adobe Illustrator 16.0.0, SVG Export Plug-In . SVG Version: 6.00 Build 0)  -->
<!DOCTYPE svg PUBLIC "-//W3C//DTD SVG 1.0//EN" "http://www.w3.org/TR/2001/REC-SVG-20010904/DTD/svg10.dtd">
<svg version="1.0" id="Layer_1" xmlns="http://www.w3.org/2000/svg" xmlns:xlink="http://www.w3.org/1999/xlink" x="0px" y="0px"
	 width="300px" height="300px" viewBox="0 0 300 300" enable-background="new 0 0 300 300" xml:space="preserve">
<g>
	<path fill="#633001" d="M54.77,46.904C50.221,22.552,68.889,0,93.715,0c21.888,0,39.607,17.767,39.607,39.655v48.8
		c5.401-0.38,11.087-0.569,16.678-0.569c5.402,0,10.707,0.189,16.013,0.522V39.655C166.014,17.767,183.734,0,205.623,0
		c24.826,0,43.492,22.552,38.945,46.904l-10.709,57.423c36.766,16.061,64.625,43.967,64.625,79.027v21.225
		c0,28.807-19.141,52.875-45.768,69.174C225.9,290.24,189.514,300,150,300c-39.514,0-75.9-9.76-102.764-26.247
		c-26.626-16.299-45.72-40.367-45.72-69.174v-21.225c0-34.871,27.527-62.682,64.008-78.791L54.77,46.904z M220.025,111.86
		l12.602-67.183c3.127-16.914-9.76-32.548-27.004-32.548c-15.162,0-27.48,12.318-27.48,27.526v62.113
		c-3.98-0.474-8.053-0.9-12.129-1.185c-5.307-0.379-10.611-0.568-16.013-0.568c-5.686,0-11.276,0.189-16.678,0.616
		c-4.074,0.284-8.149,0.711-12.129,1.232V39.655c0-15.208-12.318-27.526-27.479-27.526c-17.199,0-30.18,15.635-27.054,32.548
		l12.603,67.42c-39.372,14.593-65.619,41.03-65.619,71.257v21.225c0,45.957,61.023,83.292,136.355,83.292
		c75.332,0,136.355-37.335,136.355-83.292v-21.225C286.355,153.032,259.824,126.406,220.025,111.86z"/>
	<path fill="#FEDC90" d="M286.355,204.579c0,45.957-61.023,83.292-136.355,83.292c-75.332,0-136.355-37.335-136.355-83.292v-21.225
		h272.71V204.579z"/>
	<path fill="#D1884F" d="M66.662,44.677c-3.126-16.914,9.808-32.548,27.054-32.548c15.16,0,27.479,12.318,27.479,27.526v62.208
		c9.287-1.232,18.857-1.848,28.807-1.848c9.57,0,19.046,0.616,28.142,1.753V39.655c0-15.208,12.318-27.526,27.48-27.526
		c17.244,0,30.131,15.635,27.004,32.548l-12.602,67.183c39.799,14.545,66.33,41.172,66.33,71.494
		c0,46.052-61.023,83.291-136.355,83.291c-75.332,0-136.355-37.239-136.355-83.291c0-30.228,26.248-56.665,65.619-71.257
		L66.662,44.677z"/>
	<path fill="#633001" d="M112.098,177.29c0,12.508-6.728,22.742-15.161,22.742c-8.338,0-15.114-10.234-15.114-22.742
		s6.775-22.741,15.114-22.741C105.37,154.549,112.098,164.782,112.098,177.29z"/>
	<path fill="#633001" d="M216.615,177.29c0,12.508-6.824,22.742-15.162,22.742s-15.16-10.234-15.16-22.742
		s6.822-22.741,15.16-22.741S216.615,164.782,216.615,177.29z"/>
</g>
</svg>
