<?xml version="1.0" encoding="utf-8"?>
<!-- Generator: Adobe Illustrator 25.4.1, SVG Export Plug-In . SVG Version: 6.00 Build 0)  -->
<svg version="1.1" id="Layer_1" xmlns="http://www.w3.org/2000/svg" xmlns:xlink="http://www.w3.org/1999/xlink" x="0px" y="0px"
	 viewBox="0 0 300 300" style="enable-background:new 0 0 300 300;" xml:space="preserve">
<style type="text/css">
	.st0{fill:#DE5959;}
</style>
<path class="st0" d="M117.54,147.64l-2.6-2.62c-1.97-1.96-5.35-0.57-5.35,2.21v37.35c0,1.72,1.42,3.13,3.14,3.13h37.36
	c2.79,0,4.19-3.37,2.21-5.34c-1.22-1.22-1.22-3.2,0-4.42l39.73-39.86c1.22-1.21,1.22-3.19,0-4.42l-3.62-3.61
	c-1.97-1.96-0.57-5.34,2.21-5.34h37.33c1.73,0,3.14,1.4,3.14,3.13v37.34c0,2.79-3.39,4.18-5.36,2.21l-2.52-2.52
	c-1.23-1.26-3.21-1.26-4.41,0l-66.99,66.96c-1.22,1.22-3.19,1.22-4.42,0l-81.96-81.96c-1.23-1.23-1.23-3.21,0-4.44L178.91,32.02
	c1.22-1.22,1.22-3.21,0-4.43L152.23,0.91c-1.22-1.22-3.2-1.22-4.43,0L0.92,147.8c-1.22,1.22-1.22,3.21,0,4.43l146.86,146.86
	c1.22,1.21,3.22,1.21,4.43,0l146.86-146.86c1.21-1.22,1.21-3.2,0-4.42l-86.4-86.4c-1.21-1.22-3.2-1.22-4.42,0l-86.27,86.23
	C120.75,148.87,118.77,148.87,117.54,147.64L117.54,147.64z"/>
</svg>
