<?xml version="1.0" encoding="utf-8"?>
<!-- Generator: Adobe Illustrator 25.4.1, SVG Export Plug-In . SVG Version: 6.00 Build 0)  -->
<svg version="1.1" id="Layer_1" xmlns="http://www.w3.org/2000/svg" xmlns:xlink="http://www.w3.org/1999/xlink" x="0px" y="0px"
	 viewBox="0 0 300 300" style="enable-background:new 0 0 300 300;" xml:space="preserve">
<style type="text/css">
	.st0{fill:#55A49F;}
	.st1{fill:#4A8C89;}
	.st2{fill:#5AABA5;}
	.st3{fill:#4A8C8A;}
	.st4{fill:#5AABA6;}
	.st5{fill:#4B8F8E;}
	.st6{fill:#7CC6C7;}
	.st7{fill:#5AB5B4;}
	.st8{fill:#428989;}
	.st9{fill:#549391;}
	.st10{fill:#306563;}
	.st11{fill:#64B9B9;}
	.st12{fill:#7FD6D5;}
</style>
<g>
	<path class="st0" d="M240.8,145.4c12.65-16,19.52-35.81,19.48-56.21C260.28,39.01,219.62,0,169.47,0H59.19v11.35h107.83
		c44.33,0,80.26,34.32,80.26,78.65c0.03,17.23-5.52,34.01-15.8,47.84L240.8,145.4z"/>
	<path class="st1" d="M228.5,136c12.07-12.27,18.82-28.79,18.8-46c0-36.27-29.4-65.67-65.67-65.68H88.38v11.36h95.67
		c29.55-0.02,53.52,23.92,53.54,53.48c0,0.01,0,0.02,0,0.03c0.02,15.8-6.96,30.8-19.07,40.95L228.5,136z"/>
	<path class="st2" d="M210.51,127.44c15.34-6.7,27.09-21.31,27.09-38.25c0-23.28-22.12-42.16-45.41-42.16h-81.11v6.48h80.27
		c19.22,0,38.1,15.62,38.1,34.87c0,15.6-12.36,28.83-27.3,33.26L210.51,127.44z"/>
	<path class="st3" d="M26.76,288.65H44.6V300H26.76V288.65z"/>
	<path class="st4" d="M44.6,265.94h71.35v8.1H44.6L44.6,265.94z"/>
	<path class="st5" d="M44.6,215.68h76.22v6.49H44.6L44.6,215.68z"/>
	<path class="st6" d="M135.41,215.68h48.65v6.49h-48.65V215.68z"/>
	<path class="st7" d="M59.19,192.97h25.94v6.49H59.19V192.97z"/>
	<path class="st8" d="M99.73,192.97h84.32v6.49H99.73V192.97z"/>
	<path class="st9" d="M127.3,90.81h55.13v6.49H127.3V90.81z"/>
	<path class="st10" d="M62.44,47.03h30.81v6.49H62.44V47.03z"/>
	<path class="st11" d="M70.54,71.35h113.51v6.49H70.54L70.54,71.35z"/>
	<path class="st12" d="M41.35,90.81h69.73v6.49H41.35V90.81z"/>
	<path class="st0" d="M60.82,287.03v11.35h123.23c50.18,0,90.81-39.03,90.81-89.19c0-50.15-40.66-90.81-90.81-90.81l0,0H104.6v9.74
		h77.03c44.33,0.01,80.26,35.94,80.26,80.27c0,44.34-35.94,78.65-80.26,78.65L60.82,287.03z"/>
	<path class="st1" d="M80.27,142.7v11.36h118.38c29.55-0.01,53.51,23.95,53.52,53.5c0,0,0,0.01,0,0.01
		c0,29.56-23.96,53.52-53.52,53.52l0,0h-69.73v12.97h67.26c36.27,0,65.67-29.4,65.67-65.67c0,0,0-0.01,0-0.01
		c0-36.27-29.4-65.67-65.67-65.68H80.27z"/>
	<path class="st2" d="M114.33,167.03v6.48h91.62c19.22,0,38.1,15.62,38.1,34.87c0,19.22-18.84,34.87-38.1,34.87H25.14v8.1h181.62
		c23.28,0,45.41-18.88,45.41-42.16s-22.12-42.16-45.41-42.16H114.33z"/>
</g>
</svg>
