<?xml version="1.0" encoding="utf-8"?>
<!-- Generator: Adobe Illustrator 24.0.0, SVG Export Plug-In . SVG Version: 6.00 Build 0)  -->
<svg version="1.1" id="图层_1" xmlns="http://www.w3.org/2000/svg" xmlns:xlink="http://www.w3.org/1999/xlink" x="0px" y="0px"
	 viewBox="0 0 92 66.2" style="enable-background:new 0 0 92 66.2;" xml:space="preserve">
<style type="text/css">
	.st0{fill:#FFFFFF;}
</style>
<g>
	<g>
		<path class="st0" d="M82.5,66.2H9.6c-5.3,0-9.6-4.3-9.6-9.6v-47C0,4.3,4.3,0,9.6,0h72.9C87.7,0,92,4.3,92,9.6v47.1
			C92,61.9,87.7,66.2,82.5,66.2z M9.6,3C5.9,3,3,5.9,3,9.6v47.1c0,3.6,2.9,6.6,6.6,6.6h72.9c3.6,0,6.6-2.9,6.6-6.6V9.6
			C89,5.9,86.1,3,82.5,3H9.6z"/>
	</g>
	<g>
		<rect x="1.5" y="16.1" class="st0" width="89" height="3"/>
	</g>
	<g>
		<path class="st0" d="M34.8,54.3l9.1-23.7h3.4L57,54.3h-3.6l-2.8-7.2h-9.9l-2.6,7.2H34.8z M41.6,44.6h8L47.2,38
			c-0.8-2-1.3-3.6-1.7-4.9c-0.3,1.5-0.7,3-1.3,4.5L41.6,44.6z"/>
		<path class="st0" d="M63.7,54.3v-10l-9.1-13.7h3.8l4.7,7.1c0.9,1.3,1.7,2.7,2.4,4c0.7-1.2,1.6-2.6,2.6-4.2l4.6-7h3.7l-9.5,13.7v10
			h-3.2V54.3z"/>
		<path class="st0" d="M35.1,34.2c-0.5-1-1.1-1.7-1.9-2.3c-0.8-0.5-1.8-0.9-2.9-1.1c-0.8-0.2-2-0.2-3.6-0.2h-8.9v2.8h3.1h0.4H27
			c1.4,0,2.4,0.1,2.9,0.2c0.8,0.2,1.5,0.7,2,1.4c0.5,0.7,0.8,1.6,0.8,2.5c0,1.4-0.4,2.4-1.3,3.2c-0.9,0.8-2.3,1.1-4.3,1.1h-5.8h-0.4
			h-3.1v12.4h3.1v-9.6H27c3.4,0,5.7-0.7,6.9-2.1s1.9-3.1,1.9-5.1C35.8,36.3,35.6,35.2,35.1,34.2z"/>
	</g>
</g>
</svg>
